{
    "patcher": {
        "fileversion": 1,
        "appversion": {
            "major": 9,
            "minor": 1,
            "revision": 4,
            "architecture": "x64",
            "modernui": 1
        },
        "classnamespace": "dsp.gen",
        "rect": [ 530.0, 1540.0, 805.0, 776.0 ],
        "boxes": [
            {
                "box": {
                    "id": "obj-6",
                    "maxclass": "newobj",
                    "numinlets": 1,
                    "numoutlets": 0,
                    "patching_rect": [ 326.0, 530.5, 35.0, 22.0 ],
                    "text": "out 5"
                }
            },
            {
                "box": {
                    "id": "obj-3",
                    "maxclass": "newobj",
                    "numinlets": 1,
                    "numoutlets": 0,
                    "patching_rect": [ 288.0, 530.5, 35.0, 22.0 ],
                    "text": "out 4"
                }
            },
            {
                "box": {
                    "id": "obj-2",
                    "maxclass": "newobj",
                    "numinlets": 1,
                    "numoutlets": 0,
                    "patching_rect": [ 250.0, 530.5, 35.0, 22.0 ],
                    "text": "out 3"
                }
            },
            {
                "box": {
                    "id": "obj-1",
                    "maxclass": "newobj",
                    "numinlets": 1,
                    "numoutlets": 0,
                    "patching_rect": [ 212.0, 530.5, 35.0, 22.0 ],
                    "text": "out 2"
                }
            },
            {
                "box": {
                    "id": "obj-29",
                    "maxclass": "comment",
                    "numinlets": 1,
                    "numoutlets": 0,
                    "patching_rect": [ 363.0, 364.5, 27.0, 20.0 ],
                    "text": "P3"
                }
            },
            {
                "box": {
                    "id": "obj-28",
                    "maxclass": "comment",
                    "numinlets": 1,
                    "numoutlets": 0,
                    "patching_rect": [ 330.0, 270.5, 27.0, 20.0 ],
                    "text": "P2"
                }
            },
            {
                "box": {
                    "id": "obj-27",
                    "maxclass": "comment",
                    "numinlets": 1,
                    "numoutlets": 0,
                    "patching_rect": [ 297.0, 192.5, 27.0, 20.0 ],
                    "text": "P1"
                }
            },
            {
                "box": {
                    "id": "obj-26",
                    "maxclass": "comment",
                    "numinlets": 1,
                    "numoutlets": 0,
                    "patching_rect": [ 179.0, 124.5, 27.0, 20.0 ],
                    "text": "P0"
                }
            },
            {
                "box": {
                    "id": "obj-23",
                    "maxclass": "newobj",
                    "numinlets": 2,
                    "numoutlets": 1,
                    "outlettype": [ "" ],
                    "patching_rect": [ 234.0, 363.5, 123.0, 22.0 ],
                    "text": "expr (pow(in1\\, 3)*in2)"
                }
            },
            {
                "box": {
                    "id": "obj-22",
                    "maxclass": "newobj",
                    "numinlets": 2,
                    "numoutlets": 1,
                    "outlettype": [ "" ],
                    "patching_rect": [ 145.0, 269.5, 181.0, 22.0 ],
                    "text": "expr (3*(1 - in1)*pow(in1\\, 2)*in2)"
                }
            },
            {
                "box": {
                    "id": "obj-21",
                    "maxclass": "newobj",
                    "numinlets": 2,
                    "numoutlets": 1,
                    "outlettype": [ "" ],
                    "patching_rect": [ 36.0, 424.5, 29.5, 22.0 ],
                    "text": "+"
                }
            },
            {
                "box": {
                    "id": "obj-20",
                    "maxclass": "newobj",
                    "numinlets": 2,
                    "numoutlets": 1,
                    "outlettype": [ "" ],
                    "patching_rect": [ 36.0, 325.5, 29.5, 22.0 ],
                    "text": "+"
                }
            },
            {
                "box": {
                    "id": "obj-19",
                    "maxclass": "newobj",
                    "numinlets": 2,
                    "numoutlets": 1,
                    "outlettype": [ "" ],
                    "patching_rect": [ 114.0, 191.5, 181.0, 22.0 ],
                    "text": "expr (3*pow((1 - in1)\\, 2))*in1*in2"
                }
            },
            {
                "box": {
                    "id": "obj-18",
                    "maxclass": "newobj",
                    "numinlets": 2,
                    "numoutlets": 1,
                    "outlettype": [ "" ],
                    "patching_rect": [ 36.0, 232.5, 29.5, 22.0 ],
                    "text": "+"
                }
            },
            {
                "box": {
                    "id": "obj-16",
                    "maxclass": "newobj",
                    "numinlets": 0,
                    "numoutlets": 1,
                    "outlettype": [ "" ],
                    "patching_rect": [ 338.0, 22.5, 28.0, 22.0 ],
                    "text": "in 5"
                }
            },
            {
                "box": {
                    "id": "obj-15",
                    "maxclass": "newobj",
                    "numinlets": 2,
                    "numoutlets": 1,
                    "outlettype": [ "" ],
                    "patching_rect": [ 36.0, 123.5, 141.0, 22.0 ],
                    "text": "expr pow((1 - in1)\\, 3)*in2"
                }
            },
            {
                "box": {
                    "id": "obj-14",
                    "maxclass": "newobj",
                    "numinlets": 0,
                    "numoutlets": 1,
                    "outlettype": [ "" ],
                    "patching_rect": [ 307.0, 22.5, 28.0, 22.0 ],
                    "text": "in 4"
                }
            },
            {
                "box": {
                    "id": "obj-13",
                    "maxclass": "newobj",
                    "numinlets": 0,
                    "numoutlets": 1,
                    "outlettype": [ "" ],
                    "patching_rect": [ 276.0, 22.5, 28.0, 22.0 ],
                    "text": "in 3"
                }
            },
            {
                "box": {
                    "id": "obj-12",
                    "maxclass": "newobj",
                    "numinlets": 0,
                    "numoutlets": 1,
                    "outlettype": [ "" ],
                    "patching_rect": [ 245.0, 22.5, 28.0, 22.0 ],
                    "text": "in 2"
                }
            },
            {
                "box": {
                    "id": "obj-11",
                    "maxclass": "newobj",
                    "numinlets": 0,
                    "numoutlets": 1,
                    "outlettype": [ "" ],
                    "patching_rect": [ 36.0, 22.5, 28.0, 22.0 ],
                    "text": "in 1"
                }
            },
            {
                "box": {
                    "id": "obj-10",
                    "linecount": 3,
                    "maxclass": "comment",
                    "numinlets": 1,
                    "numoutlets": 0,
                    "patching_rect": [ 410.0, 204.0, 200.0, 47.0 ],
                    "text": "P = signal 1-4\nT = pan between each two points, 1-2, 2-3, 3-4"
                }
            },
            {
                "box": {
                    "id": "obj-8",
                    "maxclass": "comment",
                    "numinlets": 1,
                    "numoutlets": 0,
                    "patching_rect": [ 92.0, 531.5, 39.0, 20.0 ],
                    "text": "C0(T)"
                }
            },
            {
                "box": {
                    "fontsize": 14.621538461538462,
                    "id": "obj-7",
                    "linecount": 4,
                    "maxclass": "comment",
                    "numinlets": 1,
                    "numoutlets": 0,
                    "patching_rect": [ 408.0, 111.0, 154.0, 72.0 ],
                    "text": "C0(T) = ((1-T)^3)P0 + (3(1-T)^2)*T*P1 + (3(1-T)T^2)*P2 + (T^3)*P3"
                }
            },
            {
                "box": {
                    "id": "obj-4",
                    "maxclass": "newobj",
                    "numinlets": 1,
                    "numoutlets": 0,
                    "patching_rect": [ 36.0, 530.5, 35.0, 22.0 ],
                    "text": "out 1"
                }
            },
            {
                "box": {
                    "background": 1,
                    "id": "obj-5",
                    "maxclass": "comment",
                    "numinlets": 0,
                    "numoutlets": 0,
                    "patching_rect": [ 408.0, 51.0, 170.0, 20.0 ],
                    "suppressinlet": 1,
                    "text": "Commissioned by Cycling '74"
                }
            },
            {
                "box": {
                    "background": 1,
                    "fontsize": 17.0,
                    "id": "obj-9",
                    "maxclass": "comment",
                    "numinlets": 0,
                    "numoutlets": 0,
                    "patching_rect": [ 408.0, 21.0, 238.0, 25.0 ],
                    "suppressinlet": 1,
                    "text": "Patch made by Jacob Ottmer"
                }
            }
        ],
        "lines": [
            {
                "patchline": {
                    "destination": [ "obj-15", 0 ],
                    "order": 3,
                    "source": [ "obj-11", 0 ]
                }
            },
            {
                "patchline": {
                    "destination": [ "obj-19", 0 ],
                    "order": 2,
                    "source": [ "obj-11", 0 ]
                }
            },
            {
                "patchline": {
                    "destination": [ "obj-22", 0 ],
                    "order": 1,
                    "source": [ "obj-11", 0 ]
                }
            },
            {
                "patchline": {
                    "destination": [ "obj-23", 0 ],
                    "order": 0,
                    "source": [ "obj-11", 0 ]
                }
            },
            {
                "patchline": {
                    "destination": [ "obj-15", 1 ],
                    "source": [ "obj-12", 0 ]
                }
            },
            {
                "patchline": {
                    "destination": [ "obj-19", 1 ],
                    "source": [ "obj-13", 0 ]
                }
            },
            {
                "patchline": {
                    "destination": [ "obj-22", 1 ],
                    "source": [ "obj-14", 0 ]
                }
            },
            {
                "patchline": {
                    "destination": [ "obj-1", 0 ],
                    "order": 0,
                    "source": [ "obj-15", 0 ]
                }
            },
            {
                "patchline": {
                    "destination": [ "obj-18", 0 ],
                    "order": 1,
                    "source": [ "obj-15", 0 ]
                }
            },
            {
                "patchline": {
                    "destination": [ "obj-23", 1 ],
                    "source": [ "obj-16", 0 ]
                }
            },
            {
                "patchline": {
                    "destination": [ "obj-20", 0 ],
                    "source": [ "obj-18", 0 ]
                }
            },
            {
                "patchline": {
                    "destination": [ "obj-18", 1 ],
                    "order": 1,
                    "source": [ "obj-19", 0 ]
                }
            },
            {
                "patchline": {
                    "destination": [ "obj-2", 0 ],
                    "order": 0,
                    "source": [ "obj-19", 0 ]
                }
            },
            {
                "patchline": {
                    "destination": [ "obj-21", 0 ],
                    "source": [ "obj-20", 0 ]
                }
            },
            {
                "patchline": {
                    "destination": [ "obj-4", 0 ],
                    "source": [ "obj-21", 0 ]
                }
            },
            {
                "patchline": {
                    "destination": [ "obj-20", 1 ],
                    "order": 1,
                    "source": [ "obj-22", 0 ]
                }
            },
            {
                "patchline": {
                    "destination": [ "obj-3", 0 ],
                    "order": 0,
                    "source": [ "obj-22", 0 ]
                }
            },
            {
                "patchline": {
                    "destination": [ "obj-21", 1 ],
                    "order": 1,
                    "source": [ "obj-23", 0 ]
                }
            },
            {
                "patchline": {
                    "destination": [ "obj-6", 0 ],
                    "order": 0,
                    "source": [ "obj-23", 0 ]
                }
            }
        ],
        "autosave": 0
    }
}