{
    "patcher": {
        "fileversion": 1,
        "appversion": {
            "major": 9,
            "minor": 1,
            "revision": 4,
            "architecture": "x64",
            "modernui": 1
        },
        "classnamespace": "box",
        "rect": [ 1114.0, 87.0, 1027.0, 899.0 ],
        "boxes": [
            {
                "box": {
                    "id": "obj-7",
                    "maxclass": "comment",
                    "numinlets": 1,
                    "numoutlets": 0,
                    "patching_rect": [ 12.0, 106.0, 150.0, 20.0 ],
                    "text": "adapted by Jacob Ottmer"
                }
            },
            {
                "box": {
                    "id": "obj-6",
                    "maxclass": "newobj",
                    "numinlets": 2,
                    "numoutlets": 1,
                    "outlettype": [ "float" ],
                    "patching_rect": [ 649.0, 311.4580318927765, 33.0, 22.0 ],
                    "text": "* 1.5"
                }
            },
            {
                "box": {
                    "comment": "",
                    "id": "obj-5",
                    "index": 2,
                    "maxclass": "inlet",
                    "numinlets": 0,
                    "numoutlets": 1,
                    "outlettype": [ "" ],
                    "patching_rect": [ 585.0, 258.0, 30.0, 30.0 ]
                }
            },
            {
                "box": {
                    "id": "obj-4",
                    "maxclass": "newobj",
                    "numinlets": 2,
                    "numoutlets": 1,
                    "outlettype": [ "" ],
                    "patching_rect": [ 501.5, 406.0, 41.0, 22.0 ],
                    "text": "qlim 0"
                }
            },
            {
                "box": {
                    "id": "obj-19",
                    "maxclass": "newobj",
                    "numinlets": 2,
                    "numoutlets": 1,
                    "outlettype": [ "int" ],
                    "patching_rect": [ 278.0, 91.0, 32.0, 22.0 ],
                    "text": "+ 40"
                }
            },
            {
                "box": {
                    "id": "obj-17",
                    "maxclass": "newobj",
                    "numinlets": 3,
                    "numoutlets": 1,
                    "outlettype": [ "" ],
                    "patching_rect": [ 278.0, 123.0, 67.0, 22.0 ],
                    "text": "clip 40 100"
                }
            },
            {
                "box": {
                    "id": "obj-13",
                    "maxclass": "newobj",
                    "numinlets": 2,
                    "numoutlets": 1,
                    "outlettype": [ "" ],
                    "patching_rect": [ 278.0, 57.0, 66.0, 22.0 ],
                    "text": "random 61"
                }
            },
            {
                "box": {
                    "comment": "",
                    "id": "obj-10",
                    "index": 1,
                    "maxclass": "inlet",
                    "numinlets": 0,
                    "numoutlets": 1,
                    "outlettype": [ "bang" ],
                    "patching_rect": [ 278.0, 18.5, 30.0, 30.0 ]
                }
            },
            {
                "box": {
                    "comment": "Harmony",
                    "id": "obj-9",
                    "index": 2,
                    "maxclass": "outlet",
                    "numinlets": 1,
                    "numoutlets": 0,
                    "patching_rect": [ 414.0, 694.0, 30.0, 30.0 ]
                }
            },
            {
                "box": {
                    "comment": "Melody Note",
                    "id": "obj-8",
                    "index": 1,
                    "maxclass": "outlet",
                    "numinlets": 1,
                    "numoutlets": 0,
                    "patching_rect": [ 347.0, 694.0, 30.0, 30.0 ]
                }
            },
            {
                "box": {
                    "format": 6,
                    "id": "obj-15",
                    "maxclass": "flonum",
                    "numinlets": 1,
                    "numoutlets": 2,
                    "outlettype": [ "", "bang" ],
                    "parameter_enable": 0,
                    "patching_rect": [ 741.0, 456.0, 50.0, 22.0 ]
                }
            },
            {
                "box": {
                    "id": "obj-3",
                    "maxclass": "newobj",
                    "numinlets": 1,
                    "numoutlets": 0,
                    "patching_rect": [ 741.0, 499.0, 70.0, 22.0 ],
                    "text": "s harmVerb"
                }
            },
            {
                "box": {
                    "id": "obj-24",
                    "maxclass": "message",
                    "numinlets": 2,
                    "numoutlets": 1,
                    "outlettype": [ "" ],
                    "patching_rect": [ 610.5, 447.0, 50.0, 22.0 ],
                    "text": "97"
                }
            },
            {
                "box": {
                    "id": "obj-21",
                    "maxclass": "message",
                    "numinlets": 2,
                    "numoutlets": 1,
                    "outlettype": [ "" ],
                    "patching_rect": [ 608.5, 485.0, 50.0, 22.0 ],
                    "text": "random"
                }
            },
            {
                "box": {
                    "id": "obj-16",
                    "maxclass": "newobj",
                    "numinlets": 1,
                    "numoutlets": 1,
                    "outlettype": [ "signal" ],
                    "patching_rect": [ 501.5, 524.0, 154.0, 22.0 ],
                    "text": "poly~ HarmonySynthPoly 4"
                }
            },
            {
                "box": {
                    "id": "obj-14",
                    "maxclass": "comment",
                    "numinlets": 1,
                    "numoutlets": 0,
                    "patching_rect": [ 460.0, 340.0, 87.0, 20.0 ],
                    "text": "MIDI note out"
                }
            },
            {
                "box": {
                    "id": "obj-12",
                    "maxclass": "newobj",
                    "numinlets": 1,
                    "numoutlets": 2,
                    "outlettype": [ "int", "" ],
                    "patcher": {
                        "fileversion": 1,
                        "appversion": {
                            "major": 9,
                            "minor": 1,
                            "revision": 4,
                            "architecture": "x64",
                            "modernui": 1
                        },
                        "classnamespace": "box",
                        "rect": [ 801.0, 372.0, 1152.0, 838.0 ],
                        "visible": 1,
                        "boxes": [
                            {
                                "box": {
                                    "id": "obj-57",
                                    "maxclass": "newobj",
                                    "numinlets": 2,
                                    "numoutlets": 3,
                                    "outlettype": [ "bang", "bang", "int" ],
                                    "patching_rect": [ 972.0, 268.0, 40.0, 22.0 ],
                                    "text": "uzi 4"
                                }
                            },
                            {
                                "box": {
                                    "id": "obj-55",
                                    "maxclass": "newobj",
                                    "numinlets": 2,
                                    "numoutlets": 2,
                                    "outlettype": [ "", "" ],
                                    "patching_rect": [ 503.0, 304.0, 41.0, 22.0 ],
                                    "text": "buddy"
                                }
                            },
                            {
                                "box": {
                                    "id": "obj-52",
                                    "linecount": 2,
                                    "maxclass": "comment",
                                    "numinlets": 1,
                                    "numoutlets": 0,
                                    "patching_rect": [ 503.0, 414.0, 150.0, 33.0 ],
                                    "text": "adding the 3rd/5th would also identify what it is..."
                                }
                            },
                            {
                                "box": {
                                    "id": "obj-44",
                                    "maxclass": "newobj",
                                    "numinlets": 2,
                                    "numoutlets": 1,
                                    "outlettype": [ "" ],
                                    "patching_rect": [ 184.0, 134.0, 59.0, 22.0 ],
                                    "text": "random 4"
                                }
                            },
                            {
                                "box": {
                                    "id": "obj-28",
                                    "maxclass": "newobj",
                                    "numinlets": 1,
                                    "numoutlets": 2,
                                    "outlettype": [ "int", "int" ],
                                    "patching_rect": [ 442.0, 419.0, 59.0, 22.0 ],
                                    "text": "t 0 i"
                                }
                            },
                            {
                                "box": {
                                    "id": "obj-26",
                                    "maxclass": "newobj",
                                    "numinlets": 2,
                                    "numoutlets": 1,
                                    "outlettype": [ "" ],
                                    "patching_rect": [ 442.0, 304.0, 52.66665381193161, 22.0 ],
                                    "text": "gate 1"
                                }
                            },
                            {
                                "box": {
                                    "id": "obj-22",
                                    "maxclass": "button",
                                    "numinlets": 1,
                                    "numoutlets": 1,
                                    "outlettype": [ "bang" ],
                                    "parameter_enable": 0,
                                    "patching_rect": [ 30.0, 278.0, 24.0, 24.0 ]
                                }
                            },
                            {
                                "box": {
                                    "id": "obj-121",
                                    "items": [ "C", ",", "C#", ",", "D", ",", "Eb", ",", "E", ",", "F", ",", "F#", ",", "G", ",", "Ab", ",", "A", ",", "Bb", ",", "B" ],
                                    "maxclass": "umenu",
                                    "numinlets": 1,
                                    "numoutlets": 3,
                                    "outlettype": [ "int", "", "" ],
                                    "parameter_enable": 0,
                                    "patching_rect": [ 21.0, 698.0, 111.0, 22.0 ]
                                }
                            },
                            {
                                "box": {
                                    "id": "obj-120",
                                    "maxclass": "newobj",
                                    "numinlets": 2,
                                    "numoutlets": 1,
                                    "outlettype": [ "int" ],
                                    "patching_rect": [ 21.0, 668.0, 36.0, 22.0 ],
                                    "text": "% 12"
                                }
                            },
                            {
                                "box": {
                                    "id": "obj-119",
                                    "maxclass": "newobj",
                                    "numinlets": 1,
                                    "numoutlets": 0,
                                    "patching_rect": [ 67.0, 738.0, 32.0, 22.0 ],
                                    "text": "print"
                                }
                            },
                            {
                                "box": {
                                    "id": "obj-113",
                                    "maxclass": "newobj",
                                    "numinlets": 2,
                                    "numoutlets": 1,
                                    "outlettype": [ "int" ],
                                    "patching_rect": [ 220.0, 528.0, 57.0, 22.0 ],
                                    "text": "+"
                                }
                            },
                            {
                                "box": {
                                    "id": "obj-112",
                                    "items": [ "Triad", ",", "7th", "Chord", ",", "Quartal/Quintal", ",", "random" ],
                                    "maxclass": "umenu",
                                    "numinlets": 1,
                                    "numoutlets": 3,
                                    "outlettype": [ "int", "", "" ],
                                    "parameter_enable": 0,
                                    "patching_rect": [ 484.0, 618.0, 111.0, 22.0 ]
                                }
                            },
                            {
                                "box": {
                                    "comment": "",
                                    "id": "obj-111",
                                    "index": 2,
                                    "maxclass": "outlet",
                                    "numinlets": 1,
                                    "numoutlets": 0,
                                    "patching_rect": [ 530.0, 668.0, 30.0, 30.0 ]
                                }
                            },
                            {
                                "box": {
                                    "id": "obj-109",
                                    "maxclass": "comment",
                                    "numinlets": 1,
                                    "numoutlets": 0,
                                    "patching_rect": [ 930.0, 236.0, 150.0, 20.0 ],
                                    "text": "random intervals"
                                }
                            },
                            {
                                "box": {
                                    "id": "obj-107",
                                    "maxclass": "comment",
                                    "numinlets": 1,
                                    "numoutlets": 0,
                                    "patching_rect": [ 724.0, 236.0, 124.0, 20.0 ],
                                    "text": "quartal/quintal chords"
                                }
                            },
                            {
                                "box": {
                                    "id": "obj-102",
                                    "maxclass": "newobj",
                                    "numinlets": 2,
                                    "numoutlets": 1,
                                    "outlettype": [ "int" ],
                                    "patching_rect": [ 733.0, 389.0, 104.0, 22.0 ],
                                    "text": "i"
                                }
                            },
                            {
                                "box": {
                                    "id": "obj-99",
                                    "maxclass": "newobj",
                                    "numinlets": 2,
                                    "numoutlets": 3,
                                    "outlettype": [ "bang", "bang", "int" ],
                                    "patching_rect": [ 733.0, 350.0, 40.0, 22.0 ],
                                    "text": "uzi 4"
                                }
                            },
                            {
                                "box": {
                                    "id": "obj-98",
                                    "maxclass": "newobj",
                                    "numinlets": 1,
                                    "numoutlets": 2,
                                    "outlettype": [ "bang", "int" ],
                                    "patching_rect": [ 733.0, 316.0, 104.0, 22.0 ],
                                    "text": "t b i"
                                }
                            },
                            {
                                "box": {
                                    "id": "obj-93",
                                    "maxclass": "newobj",
                                    "numinlets": 2,
                                    "numoutlets": 1,
                                    "outlettype": [ "int" ],
                                    "patching_rect": [ 733.0, 500.0, 29.5, 22.0 ],
                                    "text": "* 1"
                                }
                            },
                            {
                                "box": {
                                    "id": "obj-90",
                                    "maxclass": "newobj",
                                    "numinlets": 1,
                                    "numoutlets": 2,
                                    "outlettype": [ "int", "bang" ],
                                    "patching_rect": [ 733.0, 428.0, 104.0, 22.0 ],
                                    "text": "t i b"
                                }
                            },
                            {
                                "box": {
                                    "id": "obj-87",
                                    "maxclass": "newobj",
                                    "numinlets": 5,
                                    "numoutlets": 4,
                                    "outlettype": [ "int", "", "", "int" ],
                                    "patching_rect": [ 818.0, 464.0, 69.0, 22.0 ],
                                    "text": "counter 4 1"
                                }
                            },
                            {
                                "box": {
                                    "id": "obj-85",
                                    "maxclass": "newobj",
                                    "numinlets": 1,
                                    "numoutlets": 1,
                                    "outlettype": [ "" ],
                                    "patching_rect": [ 733.0, 268.0, 104.0, 22.0 ],
                                    "text": "expr random(4\\, 6)"
                                }
                            },
                            {
                                "box": {
                                    "id": "obj-78",
                                    "maxclass": "comment",
                                    "numinlets": 1,
                                    "numoutlets": 0,
                                    "patching_rect": [ 353.0, 236.0, 68.0, 20.0 ],
                                    "text": "7th Chords"
                                }
                            },
                            {
                                "box": {
                                    "id": "obj-76",
                                    "maxclass": "comment",
                                    "numinlets": 1,
                                    "numoutlets": 0,
                                    "patching_rect": [ 409.0, 335.0, 27.0, 20.0 ],
                                    "text": "7th"
                                }
                            },
                            {
                                "box": {
                                    "id": "obj-70",
                                    "linecount": 5,
                                    "maxclass": "newobj",
                                    "numinlets": 2,
                                    "numoutlets": 1,
                                    "outlettype": [ "" ],
                                    "patching_rect": [ 442.0, 335.0, 224.0, 76.0 ],
                                    "text": "expr (($i1 == 3)*($i2 == 6)*(random(9\\, 12)) + ($i1 == 3)*($i2 == 7)*(random(10\\, 12)) + ($i1 == 4)*($i2 == 7)*(random(10\\, 12)) + ($i1 == 4)*($i2 == 8)*(random(10\\, 12)))"
                                }
                            },
                            {
                                "box": {
                                    "id": "obj-69",
                                    "maxclass": "newobj",
                                    "numinlets": 1,
                                    "numoutlets": 2,
                                    "outlettype": [ "bang", "int" ],
                                    "patching_rect": [ 342.0, 267.0, 118.99999618530273, 22.0 ],
                                    "text": "t b 1"
                                }
                            },
                            {
                                "box": {
                                    "id": "obj-68",
                                    "maxclass": "number",
                                    "numinlets": 1,
                                    "numoutlets": 2,
                                    "outlettype": [ "", "bang" ],
                                    "parameter_enable": 0,
                                    "patching_rect": [ 98.0, 65.0, 50.0, 22.0 ]
                                }
                            },
                            {
                                "box": {
                                    "id": "obj-59",
                                    "maxclass": "newobj",
                                    "numinlets": 1,
                                    "numoutlets": 2,
                                    "outlettype": [ "int", "bang" ],
                                    "patching_rect": [ 220.0, 565.0, 104.0, 22.0 ],
                                    "text": "t i b"
                                }
                            },
                            {
                                "box": {
                                    "id": "obj-58",
                                    "maxclass": "newobj",
                                    "numinlets": 1,
                                    "numoutlets": 1,
                                    "outlettype": [ "" ],
                                    "patching_rect": [ 306.0, 659.0, 87.0, 22.0 ],
                                    "presentation": 1,
                                    "presentation_rect": [ 188.0, 647.0, 100.0, 22.0 ],
                                    "text": "prepend target"
                                }
                            },
                            {
                                "box": {
                                    "id": "obj-54",
                                    "maxclass": "newobj",
                                    "numinlets": 5,
                                    "numoutlets": 4,
                                    "outlettype": [ "int", "", "", "int" ],
                                    "patching_rect": [ 306.0, 618.0, 69.0, 22.0 ],
                                    "text": "counter 4 1"
                                }
                            },
                            {
                                "box": {
                                    "fontsize": 15.65725338491296,
                                    "id": "obj-53",
                                    "linecount": 3,
                                    "maxclass": "comment",
                                    "numinlets": 1,
                                    "numoutlets": 0,
                                    "patching_rect": [ 5.0, 125.0, 175.0, 59.0 ],
                                    "text": "ALL to be calculated as interval above ORIGINAL midi note"
                                }
                            },
                            {
                                "box": {
                                    "id": "obj-51",
                                    "maxclass": "comment",
                                    "numinlets": 1,
                                    "numoutlets": 0,
                                    "patching_rect": [ 196.0, 316.0, 25.0, 20.0 ],
                                    "text": "5th"
                                }
                            },
                            {
                                "box": {
                                    "id": "obj-48",
                                    "maxclass": "comment",
                                    "numinlets": 1,
                                    "numoutlets": 0,
                                    "patching_rect": [ 45.0, 317.0, 29.0, 20.0 ],
                                    "text": "3rd"
                                }
                            },
                            {
                                "box": {
                                    "id": "obj-36",
                                    "linecount": 2,
                                    "maxclass": "newobj",
                                    "numinlets": 1,
                                    "numoutlets": 1,
                                    "outlettype": [ "" ],
                                    "patching_rect": [ 220.0, 316.0, 175.0, 35.0 ],
                                    "text": "expr (($i1 == 3)*(random(6\\, 8)) + ($i1 == 4)*(random(7\\, 9)))"
                                }
                            },
                            {
                                "box": {
                                    "id": "obj-31",
                                    "linecount": 9,
                                    "maxclass": "comment",
                                    "numinlets": 1,
                                    "numoutlets": 0,
                                    "patching_rect": [ 544.0, 15.0, 230.0, 141.0 ],
                                    "text": "parameters:\n- determine interval above midi note in\n- allow within 2 octaves of midi note\n- option for interpreting as inversion? \n    - perhaps just -12 to lower one of the notes by an octave for easy solution to that. \n- Need to mute voices not included in chord change?\n"
                                }
                            },
                            {
                                "box": {
                                    "fontsize": 14.93857493857494,
                                    "id": "obj-27",
                                    "linecount": 2,
                                    "maxclass": "comment",
                                    "numinlets": 1,
                                    "numoutlets": 0,
                                    "patching_rect": [ 272.0, 742.0, 151.0, 40.0 ],
                                    "text": "send interval in MIDI number out"
                                }
                            },
                            {
                                "box": {
                                    "id": "obj-23",
                                    "maxclass": "newobj",
                                    "numinlets": 1,
                                    "numoutlets": 2,
                                    "outlettype": [ "bang", "bang" ],
                                    "patching_rect": [ 76.0, 267.0, 127.0, 22.0 ],
                                    "text": "t b b"
                                }
                            },
                            {
                                "box": {
                                    "id": "obj-21",
                                    "maxclass": "newobj",
                                    "numinlets": 5,
                                    "numoutlets": 5,
                                    "outlettype": [ "bang", "bang", "bang", "bang", "" ],
                                    "patching_rect": [ 184.0, 193.0, 265.0, 22.0 ],
                                    "text": "sel 0 1 2 3"
                                }
                            },
                            {
                                "box": {
                                    "id": "obj-18",
                                    "maxclass": "comment",
                                    "numinlets": 1,
                                    "numoutlets": 0,
                                    "patching_rect": [ 306.0, 691.0, 150.0, 20.0 ],
                                    "text": "or to poly~ for creation"
                                }
                            },
                            {
                                "box": {
                                    "comment": "",
                                    "id": "obj-16",
                                    "index": 1,
                                    "maxclass": "outlet",
                                    "numinlets": 1,
                                    "numoutlets": 0,
                                    "patching_rect": [ 220.0, 747.0, 30.0, 30.0 ]
                                }
                            },
                            {
                                "box": {
                                    "id": "obj-14",
                                    "linecount": 2,
                                    "maxclass": "comment",
                                    "numinlets": 1,
                                    "numoutlets": 0,
                                    "patching_rect": [ 76.0, 229.0, 84.0, 33.0 ],
                                    "text": "M/m/Aug/Dim Triads"
                                }
                            },
                            {
                                "box": {
                                    "id": "obj-11",
                                    "maxclass": "newobj",
                                    "numinlets": 1,
                                    "numoutlets": 1,
                                    "outlettype": [ "" ],
                                    "patching_rect": [ 76.0, 316.0, 104.0, 22.0 ],
                                    "text": "expr random(3\\, 5)"
                                }
                            },
                            {
                                "box": {
                                    "id": "obj-9",
                                    "linecount": 5,
                                    "maxclass": "comment",
                                    "numinlets": 1,
                                    "numoutlets": 0,
                                    "patching_rect": [ 374.0, 13.0, 150.0, 74.0 ],
                                    "text": "harmony choices:\n- triad M/m/+/dim\n- 7th chord (^^ + 1 more)\n- quartal/quintal\n- random"
                                }
                            },
                            {
                                "box": {
                                    "id": "obj-6",
                                    "maxclass": "comment",
                                    "numinlets": 1,
                                    "numoutlets": 0,
                                    "patching_rect": [ 225.0, 26.0, 77.0, 20.0 ],
                                    "text": "MIDI note in"
                                }
                            },
                            {
                                "box": {
                                    "id": "obj-4",
                                    "maxclass": "newobj",
                                    "numinlets": 1,
                                    "numoutlets": 3,
                                    "outlettype": [ "bang", "int", "bang" ],
                                    "patching_rect": [ 184.0, 87.0, 165.5, 22.0 ],
                                    "text": "t b i b"
                                }
                            },
                            {
                                "box": {
                                    "id": "obj-3",
                                    "maxclass": "newobj",
                                    "numinlets": 2,
                                    "numoutlets": 1,
                                    "outlettype": [ "" ],
                                    "patching_rect": [ 972.0, 316.0, 66.0, 22.0 ],
                                    "text": "random 12"
                                }
                            },
                            {
                                "box": {
                                    "comment": "",
                                    "id": "obj-1",
                                    "index": 1,
                                    "maxclass": "inlet",
                                    "numinlets": 0,
                                    "numoutlets": 1,
                                    "outlettype": [ "" ],
                                    "patching_rect": [ 184.0, 21.0, 30.0, 30.0 ]
                                }
                            },
                            {
                                "box": {
                                    "background": 1,
                                    "fontsize": 17.0,
                                    "id": "obj-8",
                                    "maxclass": "comment",
                                    "numinlets": 0,
                                    "numoutlets": 0,
                                    "patching_rect": [ 896.0, 21.0, 238.0, 25.0 ],
                                    "suppressinlet": 1,
                                    "text": "Patch made by Jacob Ottmer"
                                }
                            }
                        ],
                        "lines": [
                            {
                                "patchline": {
                                    "destination": [ "obj-4", 0 ],
                                    "source": [ "obj-1", 0 ]
                                }
                            },
                            {
                                "patchline": {
                                    "destination": [ "obj-90", 0 ],
                                    "source": [ "obj-102", 0 ]
                                }
                            },
                            {
                                "patchline": {
                                    "destination": [ "obj-113", 0 ],
                                    "order": 1,
                                    "source": [ "obj-11", 0 ]
                                }
                            },
                            {
                                "patchline": {
                                    "destination": [ "obj-26", 1 ],
                                    "midpoints": [ 85.5, 349.799992620945, 192.0, 349.799992620945, 192.0, 301.799992620945, 485.1666538119316, 301.799992620945 ],
                                    "order": 0,
                                    "source": [ "obj-11", 0 ]
                                }
                            },
                            {
                                "patchline": {
                                    "destination": [ "obj-36", 0 ],
                                    "midpoints": [ 85.5, 349.799992620945, 192.0, 349.799992620945, 192.0, 313.799992620945, 229.5, 313.799992620945 ],
                                    "order": 2,
                                    "source": [ "obj-11", 0 ]
                                }
                            },
                            {
                                "patchline": {
                                    "destination": [ "obj-111", 0 ],
                                    "source": [ "obj-112", 1 ]
                                }
                            },
                            {
                                "patchline": {
                                    "destination": [ "obj-59", 0 ],
                                    "source": [ "obj-113", 0 ]
                                }
                            },
                            {
                                "patchline": {
                                    "destination": [ "obj-121", 0 ],
                                    "source": [ "obj-120", 0 ]
                                }
                            },
                            {
                                "patchline": {
                                    "destination": [ "obj-119", 0 ],
                                    "source": [ "obj-121", 1 ]
                                }
                            },
                            {
                                "patchline": {
                                    "destination": [ "obj-23", 0 ],
                                    "midpoints": [ 193.5, 253.79999262094498, 162.0, 253.79999262094498, 162.0, 262.799992620945, 85.5, 262.799992620945 ],
                                    "source": [ "obj-21", 0 ]
                                }
                            },
                            {
                                "patchline": {
                                    "destination": [ "obj-57", 0 ],
                                    "midpoints": [ 378.0, 223.57499270699918, 915.0, 223.57499270699918, 915.0, 268.799992620945, 969.0, 268.799992620945, 969.0, 262.799992620945, 981.5, 262.799992620945 ],
                                    "source": [ "obj-21", 3 ]
                                }
                            },
                            {
                                "patchline": {
                                    "destination": [ "obj-69", 0 ],
                                    "midpoints": [ 255.0, 241.79999262094498, 351.5, 241.79999262094498 ],
                                    "source": [ "obj-21", 1 ]
                                }
                            },
                            {
                                "patchline": {
                                    "destination": [ "obj-85", 0 ],
                                    "midpoints": [ 316.5, 232.79999262094498, 708.0, 232.79999262094498, 708.0, 262.799992620945, 742.5, 262.799992620945 ],
                                    "source": [ "obj-21", 2 ]
                                }
                            },
                            {
                                "patchline": {
                                    "destination": [ "obj-11", 0 ],
                                    "source": [ "obj-22", 0 ]
                                }
                            },
                            {
                                "patchline": {
                                    "destination": [ "obj-11", 0 ],
                                    "source": [ "obj-23", 0 ]
                                }
                            },
                            {
                                "patchline": {
                                    "destination": [ "obj-36", 0 ],
                                    "source": [ "obj-23", 1 ]
                                }
                            },
                            {
                                "patchline": {
                                    "destination": [ "obj-55", 0 ],
                                    "source": [ "obj-26", 0 ]
                                }
                            },
                            {
                                "patchline": {
                                    "destination": [ "obj-113", 0 ],
                                    "source": [ "obj-28", 1 ]
                                }
                            },
                            {
                                "patchline": {
                                    "destination": [ "obj-26", 0 ],
                                    "midpoints": [ 451.5, 454.4848880872596, 420.0, 454.4848880872596, 420.0, 382.799992620945, 438.0, 382.799992620945, 438.0, 301.799992620945, 451.5, 301.799992620945 ],
                                    "source": [ "obj-28", 0 ]
                                }
                            },
                            {
                                "patchline": {
                                    "destination": [ "obj-113", 0 ],
                                    "midpoints": [ 981.5, 492.9427077041473, 229.5, 492.9427077041473 ],
                                    "source": [ "obj-3", 0 ]
                                }
                            },
                            {
                                "patchline": {
                                    "destination": [ "obj-113", 0 ],
                                    "order": 1,
                                    "source": [ "obj-36", 0 ]
                                }
                            },
                            {
                                "patchline": {
                                    "destination": [ "obj-55", 1 ],
                                    "midpoints": [ 229.5, 352.799992620945, 192.0, 352.799992620945, 192.0, 301.799992620945, 534.5, 301.799992620945 ],
                                    "order": 0,
                                    "source": [ "obj-36", 0 ]
                                }
                            },
                            {
                                "patchline": {
                                    "destination": [ "obj-113", 1 ],
                                    "midpoints": [ 266.75, 319.299992620945, 267.5, 319.299992620945 ],
                                    "source": [ "obj-4", 1 ]
                                }
                            },
                            {
                                "patchline": {
                                    "destination": [ "obj-44", 0 ],
                                    "source": [ "obj-4", 0 ]
                                }
                            },
                            {
                                "patchline": {
                                    "destination": [ "obj-54", 2 ],
                                    "source": [ "obj-4", 2 ]
                                }
                            },
                            {
                                "patchline": {
                                    "destination": [ "obj-112", 0 ],
                                    "midpoints": [ 193.5, 190.79999262094498, 171.0, 190.79999262094498, 171.0, 253.79999262094498, 327.0, 253.79999262094498, 327.0, 301.799992620945, 405.0, 301.799992620945, 405.0, 406.799992620945, 429.0, 406.799992620945, 429.0, 604.799992620945, 493.5, 604.799992620945 ],
                                    "order": 0,
                                    "source": [ "obj-44", 0 ]
                                }
                            },
                            {
                                "patchline": {
                                    "destination": [ "obj-21", 0 ],
                                    "order": 1,
                                    "source": [ "obj-44", 0 ]
                                }
                            },
                            {
                                "patchline": {
                                    "destination": [ "obj-58", 0 ],
                                    "source": [ "obj-54", 0 ]
                                }
                            },
                            {
                                "patchline": {
                                    "destination": [ "obj-70", 1 ],
                                    "source": [ "obj-55", 1 ]
                                }
                            },
                            {
                                "patchline": {
                                    "destination": [ "obj-70", 0 ],
                                    "source": [ "obj-55", 0 ]
                                }
                            },
                            {
                                "patchline": {
                                    "destination": [ "obj-3", 0 ],
                                    "source": [ "obj-57", 0 ]
                                }
                            },
                            {
                                "patchline": {
                                    "destination": [ "obj-16", 0 ],
                                    "source": [ "obj-58", 0 ]
                                }
                            },
                            {
                                "patchline": {
                                    "destination": [ "obj-16", 0 ],
                                    "source": [ "obj-59", 0 ]
                                }
                            },
                            {
                                "patchline": {
                                    "destination": [ "obj-54", 0 ],
                                    "source": [ "obj-59", 1 ]
                                }
                            },
                            {
                                "patchline": {
                                    "destination": [ "obj-4", 0 ],
                                    "source": [ "obj-68", 0 ]
                                }
                            },
                            {
                                "patchline": {
                                    "destination": [ "obj-11", 0 ],
                                    "midpoints": [ 351.5, 303.299992620945, 85.5, 303.299992620945 ],
                                    "source": [ "obj-69", 0 ]
                                }
                            },
                            {
                                "patchline": {
                                    "destination": [ "obj-26", 0 ],
                                    "source": [ "obj-69", 1 ]
                                }
                            },
                            {
                                "patchline": {
                                    "destination": [ "obj-28", 0 ],
                                    "source": [ "obj-70", 0 ]
                                }
                            },
                            {
                                "patchline": {
                                    "destination": [ "obj-98", 0 ],
                                    "source": [ "obj-85", 0 ]
                                }
                            },
                            {
                                "patchline": {
                                    "destination": [ "obj-93", 1 ],
                                    "source": [ "obj-87", 0 ]
                                }
                            },
                            {
                                "patchline": {
                                    "destination": [ "obj-87", 0 ],
                                    "source": [ "obj-90", 1 ]
                                }
                            },
                            {
                                "patchline": {
                                    "destination": [ "obj-93", 0 ],
                                    "source": [ "obj-90", 0 ]
                                }
                            },
                            {
                                "patchline": {
                                    "destination": [ "obj-113", 0 ],
                                    "source": [ "obj-93", 0 ]
                                }
                            },
                            {
                                "patchline": {
                                    "destination": [ "obj-102", 1 ],
                                    "source": [ "obj-98", 1 ]
                                }
                            },
                            {
                                "patchline": {
                                    "destination": [ "obj-99", 0 ],
                                    "source": [ "obj-98", 0 ]
                                }
                            },
                            {
                                "patchline": {
                                    "destination": [ "obj-102", 0 ],
                                    "source": [ "obj-99", 0 ]
                                }
                            }
                        ]
                    },
                    "patching_rect": [ 501.5, 459.0, 79.0, 22.0 ],
                    "text": "p harmonizer"
                }
            },
            {
                "box": {
                    "id": "obj-11",
                    "maxclass": "message",
                    "numinlets": 2,
                    "numoutlets": 1,
                    "outlettype": [ "" ],
                    "patching_rect": [ 553.5, 339.0, 50.0, 22.0 ],
                    "text": "voice 1"
                }
            },
            {
                "box": {
                    "id": "obj-71",
                    "maxclass": "newobj",
                    "numinlets": 2,
                    "numoutlets": 1,
                    "outlettype": [ "" ],
                    "patching_rect": [ 278.0, 239.0, 54.0, 22.0 ],
                    "text": "pack 0 0"
                }
            },
            {
                "box": {
                    "id": "obj-70",
                    "maxclass": "newobj",
                    "numinlets": 7,
                    "numoutlets": 2,
                    "outlettype": [ "int", "" ],
                    "patching_rect": [ 278.0, 281.0, 82.0, 22.0 ],
                    "text": "midiformat"
                }
            },
            {
                "box": {
                    "id": "obj-68",
                    "maxclass": "kslider",
                    "numinlets": 2,
                    "numoutlets": 2,
                    "outlettype": [ "int", "int" ],
                    "parameter_enable": 0,
                    "patching_rect": [ 278.0, 160.0, 336.0, 53.0 ]
                }
            },
            {
                "box": {
                    "id": "obj-67",
                    "maxclass": "newobj",
                    "numinlets": 2,
                    "numoutlets": 3,
                    "outlettype": [ "signal", "", "" ],
                    "patching_rect": [ 418.0, 311.4580318927765, 186.0, 22.0 ],
                    "text": "poly~ CollatzSynthPoly 1"
                }
            },
            {
                "box": {
                    "id": "obj-45",
                    "linecount": 9,
                    "maxclass": "comment",
                    "numinlets": 1,
                    "numoutlets": 0,
                    "patching_rect": [ 1125.0, 160.0, 172.0, 127.0 ],
                    "text": "use with musical parameters:\n- pitch\n- interval\n- chords \n- velocity\n- timbre\n- rhythmic patterns\n- musical phrases \n- large-scale form"
                }
            },
            {
                "box": {
                    "id": "obj-37",
                    "maxclass": "comment",
                    "numinlets": 1,
                    "numoutlets": 0,
                    "patching_rect": [ 1108.0, 1.0, 150.0, 20.0 ],
                    "text": "Collatz Conjecture"
                }
            },
            {
                "box": {
                    "id": "obj-23",
                    "linecount": 4,
                    "maxclass": "comment",
                    "numinlets": 1,
                    "numoutlets": 0,
                    "patching_rect": [ 12.0, 39.0, 175.0, 60.0 ],
                    "text": "Initial Collatz Conjecture Patch from HearingGlass Tutorial: https://www.youtube.com/watch?v=boYDBkAlnEI"
                }
            },
            {
                "box": {
                    "fontsize": 22.685771174479356,
                    "id": "obj-2",
                    "linecount": 5,
                    "maxclass": "comment",
                    "numinlets": 1,
                    "numoutlets": 0,
                    "patching_rect": [ 1082.0, 23.0, 270.0, 133.0 ],
                    "text": "- any positive number\n- is it even or odd\n- if even, /2\n- iff odd x3, add 1\n- repeat until it becomes 1"
                }
            }
        ],
        "lines": [
            {
                "patchline": {
                    "destination": [ "obj-13", 0 ],
                    "source": [ "obj-10", 0 ]
                }
            },
            {
                "patchline": {
                    "destination": [ "obj-16", 0 ],
                    "source": [ "obj-12", 0 ]
                }
            },
            {
                "patchline": {
                    "destination": [ "obj-21", 1 ],
                    "source": [ "obj-12", 1 ]
                }
            },
            {
                "patchline": {
                    "destination": [ "obj-19", 0 ],
                    "source": [ "obj-13", 0 ]
                }
            },
            {
                "patchline": {
                    "destination": [ "obj-3", 0 ],
                    "source": [ "obj-15", 0 ]
                }
            },
            {
                "patchline": {
                    "destination": [ "obj-9", 0 ],
                    "source": [ "obj-16", 0 ]
                }
            },
            {
                "patchline": {
                    "destination": [ "obj-68", 0 ],
                    "source": [ "obj-17", 0 ]
                }
            },
            {
                "patchline": {
                    "destination": [ "obj-17", 0 ],
                    "source": [ "obj-19", 0 ]
                }
            },
            {
                "patchline": {
                    "destination": [ "obj-12", 0 ],
                    "source": [ "obj-4", 0 ]
                }
            },
            {
                "patchline": {
                    "destination": [ "obj-6", 0 ],
                    "order": 0,
                    "source": [ "obj-5", 0 ]
                }
            },
            {
                "patchline": {
                    "destination": [ "obj-67", 1 ],
                    "order": 1,
                    "source": [ "obj-5", 0 ]
                }
            },
            {
                "patchline": {
                    "destination": [ "obj-4", 1 ],
                    "source": [ "obj-6", 0 ]
                }
            },
            {
                "patchline": {
                    "destination": [ "obj-11", 1 ],
                    "source": [ "obj-67", 2 ]
                }
            },
            {
                "patchline": {
                    "destination": [ "obj-24", 1 ],
                    "order": 0,
                    "source": [ "obj-67", 1 ]
                }
            },
            {
                "patchline": {
                    "destination": [ "obj-4", 0 ],
                    "order": 1,
                    "source": [ "obj-67", 1 ]
                }
            },
            {
                "patchline": {
                    "destination": [ "obj-8", 0 ],
                    "source": [ "obj-67", 0 ]
                }
            },
            {
                "patchline": {
                    "destination": [ "obj-71", 1 ],
                    "source": [ "obj-68", 1 ]
                }
            },
            {
                "patchline": {
                    "destination": [ "obj-71", 0 ],
                    "source": [ "obj-68", 0 ]
                }
            },
            {
                "patchline": {
                    "destination": [ "obj-67", 0 ],
                    "source": [ "obj-70", 1 ]
                }
            },
            {
                "patchline": {
                    "destination": [ "obj-70", 0 ],
                    "source": [ "obj-71", 0 ]
                }
            }
        ]
    }
}